<svg width="16" height="16" viewBox="0 0 16 16" fill="none" xmlns="http://www.w3.org/2000/svg">
<mask id="mask0" mask-type="alpha" maskUnits="userSpaceOnUse" x="0" y="0" width="16" height="16">
<path fill-rule="evenodd" clip-rule="evenodd" d="M0 0.00500488H15.995V15.9981H0V0.00500488Z" fill="white"/>
</mask>
<g mask="url(#mask0)">
<path fill-rule="evenodd" clip-rule="evenodd" d="M7.99749 0.00500488C5.82549 0.00500488 5.55314 0.0142112 4.70013 0.0531319C3.84889 0.0919573 3.26752 0.227164 2.75883 0.424878C2.23292 0.629227 1.78692 0.902687 1.34229 1.34729C0.897683 1.79193 0.624222 2.23793 0.419873 2.76383C0.222159 3.27253 0.0869524 3.85389 0.048127 4.70513C0.00920635 5.55815 0 5.8305 0 8.0025C0 10.1745 0.00920635 10.4468 0.048127 11.2998C0.0869524 12.1511 0.222159 12.7324 0.419873 13.2411C0.624222 13.767 0.897683 14.213 1.34229 14.6577C1.78692 15.1023 2.23292 15.3757 2.75883 15.5801C3.26752 15.7778 3.84889 15.913 4.70013 15.9518C5.55314 15.9908 5.82549 16 7.99749 16C10.1695 16 10.4418 15.9908 11.2948 15.9518C12.1461 15.913 12.7274 15.7778 13.2361 15.5801C13.762 15.3757 14.208 15.1023 14.6527 14.6577C15.0973 14.213 15.3707 13.767 15.5751 13.2411C15.7728 12.7324 15.908 12.1511 15.9468 11.2998C15.9857 10.4468 15.995 10.1745 15.995 8.0025C15.995 5.8305 15.9857 5.55815 15.9468 4.70513C15.908 3.85389 15.7728 3.27253 15.5751 2.76383C15.3707 2.23793 15.0973 1.79193 14.6527 1.34729C14.208 0.902687 13.762 0.629227 13.2361 0.424878C12.7274 0.227164 12.1461 0.0919573 11.2948 0.0531319C10.4418 0.0142112 10.1695 0.00500488 7.99749 0.00500488ZM7.99749 1.44599C10.1329 1.44599 10.3858 1.45415 11.2291 1.49262C12.0089 1.52818 12.4323 1.65847 12.7142 1.76799C13.0875 1.91307 13.3539 2.08637 13.6337 2.36624C13.9136 2.64608 14.0869 2.9125 14.232 3.2858C14.3415 3.56761 14.4718 3.99107 14.5073 4.77081C14.5458 5.61412 14.554 5.86707 14.554 8.0025C14.554 10.1379 14.5458 10.3908 14.5073 11.2341C14.4718 12.0139 14.3415 12.4374 14.232 12.7192C14.0869 13.0925 13.9136 13.3589 13.6337 13.6387C13.3539 13.9186 13.0875 14.0919 12.7142 14.237C12.4323 14.3465 12.0089 14.4768 11.2291 14.5123C10.386 14.5508 10.133 14.559 7.99749 14.559C5.86191 14.559 5.60902 14.5508 4.76581 14.5123C3.98606 14.4768 3.5626 14.3465 3.28079 14.237C2.90749 14.0919 2.64108 13.9186 2.36124 13.6387C2.0814 13.3589 1.90806 13.0925 1.76298 12.7192C1.65346 12.4374 1.52317 12.0139 1.48762 11.2341C1.44914 10.3908 1.44098 10.1379 1.44098 8.0025C1.44098 5.86707 1.44914 5.61412 1.48762 4.77081C1.52317 3.99107 1.65346 3.56761 1.76298 3.2858C1.90806 2.9125 2.08137 2.64608 2.36124 2.36624C2.64108 2.08637 2.90749 1.91307 3.28079 1.76799C3.5626 1.65847 3.98606 1.52818 4.76581 1.49262C5.60911 1.45415 5.86206 1.44599 7.99749 1.44599Z" fill="white"/>
</g>
<path fill-rule="evenodd" clip-rule="evenodd" d="M7.99745 10.6684C6.52513 10.6684 5.33161 9.47486 5.33161 8.00258C5.33161 6.53026 6.52513 5.33674 7.99745 5.33674C9.46974 5.33674 10.6633 6.53026 10.6633 8.00258C10.6633 9.47486 9.46974 10.6684 7.99745 10.6684ZM7.99745 3.89575C5.72929 3.89575 3.89062 5.73442 3.89062 8.00258C3.89062 10.2707 5.72929 12.1094 7.99745 12.1094C10.2656 12.1094 12.1042 10.2707 12.1042 8.00258C12.1042 5.73442 10.2656 3.89575 7.99745 3.89575Z" fill="white"/>
<path fill-rule="evenodd" clip-rule="evenodd" d="M13.2263 3.73352C13.2263 4.26355 12.7966 4.6932 12.2666 4.6932C11.7366 4.6932 11.3069 4.26355 11.3069 3.73352C11.3069 3.20349 11.7366 2.7738 12.2666 2.7738C12.7966 2.7738 13.2263 3.20349 13.2263 3.73352Z" fill="white"/>
</svg>
